<?xml version="1.0" encoding="UTF-8" standalone="no"?>
<!-- Created with Inkscape (http://www.inkscape.org/) -->

<svg
   width="3840"
   height="2160"
   viewBox="0 0 3840 2160"
   version="1.1"
   id="svg1"
   inkscape:version="1.3 (0e150ed6c4, 2023-07-21)"
   sodipodi:docname="Logo.svg"
   xmlns:inkscape="http://www.inkscape.org/namespaces/inkscape"
   xmlns:sodipodi="http://sodipodi.sourceforge.net/DTD/sodipodi-0.dtd"
   xmlns="http://www.w3.org/2000/svg"
   xmlns:svg="http://www.w3.org/2000/svg">
  <sodipodi:namedview
     id="namedview1"
     pagecolor="#393939"
     bordercolor="#eeeeee"
     borderopacity="1"
     inkscape:showpageshadow="false"
     inkscape:pageopacity="0"
     inkscape:pagecheckerboard="false"
     inkscape:deskcolor="#1f1f1f"
     inkscape:document-units="px"
     labelstyle="default"
     inkscape:clip-to-page="false"
     inkscape:zoom="0.24675079"
     inkscape:cx="1880.4397"
     inkscape:cy="1173.2485"
     inkscape:window-width="1920"
     inkscape:window-height="1017"
     inkscape:window-x="-8"
     inkscape:window-y="-8"
     inkscape:window-maximized="1"
     inkscape:current-layer="layer1" />
  <defs
     id="defs1" />
  <g
     inkscape:label="Layer 1"
     inkscape:groupmode="layer"
     id="layer1">
    <path
       id="text1"
       style="font-weight:800;font-size:341.333px;line-height:1.5;font-family:Raleway;-inkscape-font-specification:'Raleway Ultra-Bold';text-align:center;letter-spacing:50px;word-spacing:0px;text-orientation:upright;text-anchor:middle;fill:#ffffff;stroke-width:3.99999;stroke-linecap:round;stroke-linejoin:round;stroke-dasharray:3.99999, 8.00002;paint-order:stroke fill markers"
       d="m 1485.7105,867.85915 c -30.2497,0 -58.1448,5.69594 -83.6802,17.08869 -25.5354,11.39274 -47.7311,27.10702 -66.5881,47.14251 -18.464,19.64256 -32.9983,42.03563 -43.6053,67.17818 -7.4358,18.30357 -12.0889,37.35537 -14.1113,57.11647 h 98.8907 c 1.0802,-7.544 2.6628,-14.9956 4.7915,-22.3488 4.7143,-15.3212 11.587,-28.8761 20.6225,-40.6618 9.4285,-12.17843 20.8237,-21.80229 34.1809,-28.87349 13.7497,-7.07137 29.855,-10.60792 48.3191,-10.60792 17.2855,0 32.8024,3.33939 46.5525,10.01783 13.7497,6.67862 25.3389,16.10497 34.7673,28.28341 9.4287,11.78567 16.5018,25.14307 21.216,40.07167 2.4849,7.8683 4.2234,15.9232 5.3985,24.1191 h 98.5098 c -2.0966,-17.9391 -6.3729,-35.6165 -13.1604,-52.9926 -9.8214,-25.53548 -23.9645,-48.51673 -42.4286,-68.94515 -18.0712,-20.42842 -39.8726,-36.53702 -65.4079,-48.32252 -25.1427,-12.17843 -53.2316,-18.26558 -84.267,-18.26558 z m 534.7617,0 c -32.9996,0 -62.4623,6.08715 -88.3908,18.26558 -25.9281,11.7855 -47.93,27.69694 -66.0014,47.73243 -18.0712,20.03549 -31.8198,42.42838 -41.2482,67.17814 -7.0153,18.1225 -11.3986,36.5747 -13.1942,55.3497 h 99.2212 c 1.0795,-7.254 2.6208,-14.5084 4.7206,-21.7622 4.3215,-14.9284 11.0004,-28.4799 20.0358,-40.65832 9.0357,-12.17843 20.4278,-21.80557 34.1776,-28.87676 13.7498,-7.46431 29.8584,-11.19473 48.3225,-11.19473 11.3928,0 23.1793,1.76819 35.3577,5.30388 12.5713,3.14275 23.9632,8.83886 34.1774,17.08885 10.607,8.24981 19.054,19.83902 25.3398,34.76758 l 74.249,-51.85643 c -14.1426,-27.10686 -35.75,-49.10856 -64.8212,-66.00129 -28.6783,-16.89273 -62.6605,-25.33643 -101.9458,-25.33643 z m -1253.38251,2.3569 v 57.49423 l 288.80241,360.89342 h 78.319 v -49.9241 L 839.34921,870.21605 Z m 270.47951,0 v 172.11155 l 96.6419,120.7643 V 870.21605 Z m 1256.0263,0 v 84.85366 h 127.8722 v 333.53399 h 96.6417 V 955.06971 h 127.2857 v -84.85366 z m 485.2623,0 v 418.38765 h 294.0526 v -84.8569 h -197.4108 v -88.9809 h 165.0001 v -78.3729 h -165.0001 v -81.32329 h 192.1068 V 870.21605 Z M 767.08969,1003.2945 v 285.3092 h 96.64503 v -164.5381 z m 510.98651,100.3171 c 2.0931,18.4246 6.3737,36.501 13.1706,54.1728 9.8214,25.1428 23.7672,47.9267 41.8385,68.3551 18.4639,20.0354 40.2686,36.1441 65.4113,48.3225 25.5353,11.7857 54.0155,17.6789 85.4436,17.6789 30.2498,0 57.9476,-5.6995 83.0901,-17.0921 25.5355,-11.7857 47.7313,-27.4998 66.5883,-47.1425 18.8569,-20.0355 33.3945,-42.6223 43.6086,-67.7648 7.361,-18.1195 11.9676,-36.9821 14.0237,-56.5299 h -99.1944 c -1.1743,7.2942 -2.7727,14.555 -4.9904,21.7622 -4.3213,14.9285 -11.0001,28.4799 -20.0358,40.6583 -9.0357,12.1785 -20.4275,21.9995 -34.1773,29.4636 -13.75,7.0714 -29.8586,10.608 -48.3227,10.608 -17.6784,0 -33.3924,-3.5366 -47.1423,-10.608 -13.7499,-7.0714 -25.3393,-16.4979 -34.7677,-28.2834 -9.0356,-11.7857 -15.9081,-25.1432 -20.6224,-40.0716 -2.3821,-7.7418 -4.1458,-15.5866 -5.3243,-23.5291 z m 534.6167,0 c 2.2288,17.2365 6.3264,34.3234 12.729,51.2258 10.2141,25.5355 24.3572,48.7141 42.4284,69.5353 18.4642,20.4282 40.2653,36.9278 65.4081,49.4992 25.5353,12.1784 53.4304,18.269 83.6802,18.269 23.1782,0 46.5505,-3.7339 70.1217,-11.1982 23.9641,-7.857 45.3743,-19.0517 64.2312,-33.5872 18.857,-14.5357 32.4118,-32.0182 40.6617,-52.4466 l -78.963,-46.5555 c -5.5,13.7496 -13.5526,24.948 -24.1597,33.5907 -10.2141,8.2499 -21.4123,14.3403 -33.5907,18.2689 -12.1784,3.9284 -24.1587,5.8907 -35.9443,5.8907 -16.4998,0 -31.6257,-3.3392 -45.3756,-10.0179 -13.7499,-7.0714 -25.5363,-16.4979 -35.3577,-28.2834 -9.4284,-11.7855 -16.6955,-25.3404 -21.8026,-40.6617 -2.5646,-7.6935 -4.4757,-15.5382 -5.7524,-23.5291 z"
       inkscape:export-filename="Logo.png"
       inkscape:export-xdpi="200"
       inkscape:export-ydpi="200" />
  </g>
</svg>
