<?xml version="1.0" encoding="UTF-8" standalone="no"?>
<!-- Created with Inkscape (http://www.inkscape.org/) -->

<svg
   width="1920"
   height="1080"
   viewBox="0 0 1920 1080"
   version="1.1"
   id="svg1"
   inkscape:version="1.3 (0e150ed6c4, 2023-07-21)"
   sodipodi:docname="UpgradeConcept.svg"
   inkscape:export-filename="UpgradeConcept.png"
   inkscape:export-xdpi="96"
   inkscape:export-ydpi="96"
   xmlns:inkscape="http://www.inkscape.org/namespaces/inkscape"
   xmlns:sodipodi="http://sodipodi.sourceforge.net/DTD/sodipodi-0.dtd"
   xmlns:xlink="http://www.w3.org/1999/xlink"
   xmlns="http://www.w3.org/2000/svg"
   xmlns:svg="http://www.w3.org/2000/svg">
  <sodipodi:namedview
     id="namedview1"
     pagecolor="#444444"
     bordercolor="#000000"
     borderopacity="0.25"
     inkscape:showpageshadow="2"
     inkscape:pageopacity="0.0"
     inkscape:pagecheckerboard="0"
     inkscape:deskcolor="#323232"
     inkscape:document-units="px"
     inkscape:zoom="0.42135417"
     inkscape:cx="917.28059"
     inkscape:cy="477.03337"
     inkscape:window-width="1366"
     inkscape:window-height="705"
     inkscape:window-x="-8"
     inkscape:window-y="-8"
     inkscape:window-maximized="1"
     inkscape:current-layer="layer2" />
  <defs
     id="defs1">
    <linearGradient
       id="linearGradient1"
       inkscape:collect="always">
      <stop
         style="stop-color:#000f17;stop-opacity:1;"
         offset="0"
         id="stop2" />
      <stop
         style="stop-color:#00080d;stop-opacity:1;"
         offset="1"
         id="stop1" />
    </linearGradient>
    <radialGradient
       inkscape:collect="always"
       xlink:href="#linearGradient1"
       id="radialGradient2"
       cx="960"
       cy="540"
       fx="960"
       fy="540"
       r="960.5"
       gradientTransform="matrix(1,0,0,0.56272775,0,236.12702)"
       gradientUnits="userSpaceOnUse" />
  </defs>
  <g
     inkscape:label="BG"
     inkscape:groupmode="layer"
     id="layer1"
     sodipodi:insensitive="true">
    <rect
       style="opacity:1;fill:url(#radialGradient2);fill-opacity:1;stroke:#f4ff00"
       id="rect1"
       width="1920"
       height="1080"
       x="0"
       y="0"
       inkscape:label="BG"
       inkscape:export-filename="Background.png.png"
       inkscape:export-xdpi="96"
       inkscape:export-ydpi="96" />
  </g>
  <g
     inkscape:groupmode="layer"
     id="layer2"
     inkscape:label="BG Detail"
     sodipodi:insensitive="true">
    <path
       d="m -0.5,-0.5 v 1081 m 50,-1081 v 1081 m 50,-1081 v 1081 m 50,-1081 v 1081 m 50,-1081 v 1081 m 50,-1081 v 1081 m 50,-1081 v 1081 m 50,-1081 v 1081 m 50,-1081 v 1081 m 50,-1081 v 1081 m 50,-1081 v 1081 m 50,-1081 v 1081 m 50,-1081 v 1081 m 50,-1081 v 1081 m 50,-1081 v 1081 m 50,-1081 v 1081 m 50,-1081 v 1081 m 50,-1081 v 1081 m 50,-1081 v 1081 m 50,-1081 v 1081 m 50,-1081 v 1081 m 50,-1081 v 1081 m 50,-1081 v 1081 m 50,-1081 v 1081 m 50,-1081 v 1081 m 50,-1081 v 1081 m 50,-1081 v 1081 m 50,-1081 v 1081 m 50,-1081 v 1081 m 50,-1081 v 1081 m 50,-1081 v 1081 m 50,-1081 v 1081 m 50,-1081 v 1081 m 50,-1081 v 1081 m 50,-1081 v 1081 m 50,-1081 v 1081 m 50,-1081 v 1081 m 50,-1081 v 1081 m 50,-1081 v 1081 M -0.5,-0.5 h 1921 m -1921,50 h 1921 m -1921,50 h 1921 m -1921,50 h 1921 m -1921,50 h 1921 m -1921,50 h 1921 m -1921,50 h 1921 m -1921,50 h 1921 m -1921,50 h 1921 m -1921,50 h 1921 m -1921,50 h 1921 m -1921,50 h 1921 m -1921,50 h 1921 m -1921,50 h 1921 m -1921,50 h 1921 m -1921,50 h 1921 m -1921,50 h 1921 m -1921,50 h 1921 m -1921,50 h 1921 m -1921,50 h 1921 m -1921,50 h 1921 m -1921,50 h 1921"
       style="fill:none;stroke:#ffffff;stroke-width:1px;stroke-opacity:0.0291971;stroke-dasharray:none;stroke-dashoffset:0"
       id="path102"
       inkscape:label="Grid"
       inkscape:export-filename="BackgroundGrid.png"
       inkscape:export-xdpi="96"
       inkscape:export-ydpi="96" />
  </g>
</svg>
